# xmcd
#
# Track frame offsets:
#	150
#	21040
#	42141
#	55361
#	70444
#	83866
#	97580
#	116443
#	128940
#	139719
#	152397
#	166217
#	180489
#	208391
#	229988
#	250080
#
# Disc length: 3674
#
# Revision: 1
# Processed by: cddbd v1.5.1PL0 Copyright (c) Steve Scherf et al.
# Submitted via: ExactAudioCopy v0.90a11
# Normalized: r0:DSETVAR1,TDELIM( - )
#
DISCID=d00e5810
DTITLE=Various Artist - Playin' The Blues
DYEAR=1900
DGENRE=
TTITLE0=John Lee Hooker - Looking Back Over My Day
TTITLE1=BB King - The Thrill Is Gone
TTITLE2=Memphis Slim - Lonely Nights
TTITLE3=Roach Thompson - Hurricane Took My Home
TTITLE4=Big Joe Turner - You're Still My Baby
TTITLE5=Joe Williams - Blues In My Heart
TTITLE6=John Lee Hooker - I Feel Good
TTITLE7=Eddie 'Clean Head' Vinson - Cleanhead Blues
TTITLE8=Nyles Jones - Your Poodle Dog
TTITLE9=Memphis Slim - Roll 'em Slim
TTITLE10=Jimmy Witherspoon - Time Has Come
TTITLE11=Johnny Otis - Cherry Red
TTITLE12=BB King - Payin' The Cost To Be The Boss
TTITLE13=Roy Gaines - Faire L'amour
TTITLE14=John Lee Hooker - Dazie Mae
TTITLE15=BB King - Guess Who
EXTD=
EXTT0=
EXTT1=
EXTT2=
EXTT3=
EXTT4=
EXTT5=
EXTT6=
EXTT7=
EXTT8=
EXTT9=
EXTT10=
EXTT11=
EXTT12=
EXTT13=
EXTT14=
EXTT15=
PLAYORDER=
